<svg width="59" height="56" viewBox="0 0 59 56" fill="none" xmlns="http://www.w3.org/2000/svg">
<path d="M51 51.5C51 53.9853 48.9853 56 46.5 56C44.0147 56 42 53.9853 42 51.5C42 49.0147 44.0147 47 46.5 47C48.9853 47 51 49.0147 51 51.5Z" fill="black"/>
<path d="M23 51.5C23 53.9853 20.9853 56 18.5 56C16.0147 56 14 53.9853 14 51.5C14 49.0147 16.0147 47 18.5 47C20.9853 47 23 49.0147 23 51.5Z" fill="black"/>
<path fill-rule="evenodd" clip-rule="evenodd" d="M4.87211 4H0V0H8.12789L14.1401 29H49.9582L54.5658 11.491L58.4342 12.509L53.0418 33H14.9694L16.6279 41H51V45H13.3721L4.87211 4ZM31.5 16.6516V1H35.5V16.5093L42.1621 10.5134L44.8379 13.4866L33.5322 23.6618L21.6984 13.5185L24.3016 10.4815L31.5 16.6516Z" fill="black"/>
</svg>
