<svg width="71" height="68" viewBox="0 0 71 68" fill="none" xmlns="http://www.w3.org/2000/svg">
<g filter="url(#filter0_d_25_1924)">
<path d="M52 52.5C52 54.9853 49.9853 57 47.5 57C45.0147 57 43 54.9853 43 52.5C43 50.0147 45.0147 48 47.5 48C49.9853 48 52 50.0147 52 52.5Z" fill="black"/>
<path d="M24 52.5C24 54.9853 21.9853 57 19.5 57C17.0147 57 15 54.9853 15 52.5C15 50.0147 17.0147 48 19.5 48C21.9853 48 24 50.0147 24 52.5Z" fill="black"/>
<path fill-rule="evenodd" clip-rule="evenodd" d="M5.87211 5H1V1H9.12789L15.1401 30H50.9582L55.5658 12.491L59.4342 13.509L54.0418 34H15.9694L17.6279 42H52V46H14.3721L5.87211 5ZM32.5 17.6516V2H36.5V17.5093L43.1621 11.5134L45.8379 14.4866L34.5322 24.6618L22.6984 14.5185L25.3016 11.4815L32.5 17.6516Z" fill="black"/>
</g>
<defs>
<filter id="filter0_d_25_1924" x="0" y="0" width="70.4346" height="68" filterUnits="userSpaceOnUse" color-interpolation-filters="sRGB">
<feFlood flood-opacity="0" result="BackgroundImageFix"/>
<feColorMatrix in="SourceAlpha" type="matrix" values="0 0 0 0 0 0 0 0 0 0 0 0 0 0 0 0 0 0 127 0" result="hardAlpha"/>
<feOffset dx="5" dy="5"/>
<feGaussianBlur stdDeviation="3"/>
<feComposite in2="hardAlpha" operator="out"/>
<feColorMatrix type="matrix" values="0 0 0 0 0 0 0 0 0 0 0 0 0 0 0 0 0 0 0.36 0"/>
<feBlend mode="normal" in2="BackgroundImageFix" result="effect1_dropShadow_25_1924"/>
<feBlend mode="normal" in="SourceGraphic" in2="effect1_dropShadow_25_1924" result="shape"/>
</filter>
</defs>
</svg>
