<svg width="48" height="48" viewBox="0 0 48 48" fill="none" xmlns="http://www.w3.org/2000/svg">
<path d="M45.6 0H2.4C1.76371 0.000741045 1.15369 0.253835 0.703762 0.703762C0.253835 1.15369 0.000741045 1.76371 0 2.4V18.4H3.2V3.2H44.8V44.8H3.2V28.8H0V45.6C0.000741045 46.2363 0.253835 46.8463 0.703762 47.2962C1.15369 47.7462 1.76371 47.9993 2.4 48H45.6C46.2363 47.9993 46.8463 47.7462 47.2962 47.2962C47.7462 46.8463 47.9993 46.2363 48 45.6V2.4C47.9993 1.76371 47.7462 1.15369 47.2962 0.703762C46.8463 0.253835 46.2363 0.000741045 45.6 0Z" fill="#9B0808"/>
<path d="M19.3377 34.7307L21.6004 36.9934L35.0627 23.5311L21.6004 10.0688L19.3377 12.3314L28.9374 21.9312H0V25.1312H28.9372L19.3377 34.7307Z" fill="#9B0808"/>
</svg>
