<svg width="345" height="70" viewBox="0 0 345 70" fill="none" xmlns="http://www.w3.org/2000/svg">
<g filter="url(#filter0_d_25_1919)">
<path d="M6.47247 47.4819C5.06647 47.4819 4.28747 46.8929 4.13547 45.7149H3.50847C2.40647 45.6009 1.85547 45.0309 1.85547 44.0049C1.85547 43.1309 2.10247 42.3519 2.59647 41.6679C3.09047 40.9839 3.75547 40.6609 4.59147 40.6989H5.33247C6.81447 34.8849 8.01147 29.3749 8.92347 24.1689C9.41747 21.5089 10.0445 17.7279 10.8045 12.8259C10.4245 12.9019 10.1585 12.9399 10.0065 12.9399C9.66447 12.9399 9.36047 12.8259 9.09447 12.5979C8.86647 12.3319 8.75247 11.9709 8.75247 11.5149C8.75247 10.6409 9.05647 9.91888 9.66447 9.34888C10.2725 8.77888 11.2225 8.22788 12.5145 7.69588C16.0105 6.36588 19.6585 5.70088 23.4585 5.70088C26.1185 5.70088 28.4935 6.11888 30.5835 6.95488C32.7115 7.79088 34.3645 8.96888 35.5425 10.4889C36.7205 12.0089 37.3095 13.7379 37.3095 15.6759C37.3095 18.4879 36.2645 20.8059 34.1745 22.6299C32.0845 24.4159 29.3865 25.5559 26.0805 26.0499C28.5125 26.6579 30.3555 27.7219 31.6095 29.2419C32.8635 30.7619 33.4905 32.4149 33.4905 34.2009C33.4905 36.8609 32.6925 39.1029 31.0965 40.9269C29.5005 42.7509 27.3915 44.0999 24.7695 44.9739C22.1475 45.8479 19.2785 46.2469 16.1625 46.1709L9.49347 45.8859C8.88547 46.9499 7.87847 47.4819 6.47247 47.4819ZM16.7895 41.1549C20.2095 41.1549 22.9075 40.5659 24.8835 39.3879C26.8595 38.2099 27.8475 36.3289 27.8475 33.7449C27.8475 31.8449 27.0115 30.4769 25.3395 29.6409C23.6675 28.8049 21.3875 28.3299 18.4995 28.2159C17.5875 28.2159 16.8845 28.1019 16.3905 27.8739C15.8965 27.6459 15.6495 27.1899 15.6495 26.5059C15.6495 24.4919 16.8465 23.4469 19.2405 23.3709C22.8505 23.2189 25.7955 22.6109 28.0755 21.5469C30.3935 20.4829 31.5525 18.5829 31.5525 15.8469C31.5525 14.0989 30.7545 12.7689 29.1585 11.8569C27.6005 10.9449 25.3965 10.4889 22.5465 10.4889C21.7485 10.4889 20.7985 10.5649 19.6965 10.7169C18.6325 10.8309 17.6445 11.0019 16.7325 11.2299C16.2765 14.3459 15.5545 18.6589 14.5665 24.1689C14.0725 27.1329 13.5405 29.8499 12.9705 32.3199C12.4005 34.7519 11.6595 37.6589 10.7475 41.0409L13.0275 41.0979C13.9015 41.1359 15.1555 41.1549 16.7895 41.1549Z" fill="black"/>
<path d="M53.7068 46.3419C50.9328 46.3419 48.5198 45.7909 46.4678 44.6889C44.4538 43.5489 42.9148 42.0289 41.8508 40.1289C40.7868 38.1909 40.2548 36.0819 40.2548 33.8019C40.2548 30.7619 40.9958 27.9309 42.4778 25.3089C43.9598 22.6869 45.9928 20.5969 48.5768 19.0389C51.1988 17.4809 54.1058 16.7019 57.2978 16.7019C59.6158 16.7019 61.7058 17.1199 63.5678 17.9559C65.4678 18.7919 66.9688 20.0079 68.0708 21.6039C69.2108 23.1999 69.7808 25.0619 69.7808 27.1899C69.7808 29.1659 69.4388 30.6099 68.7548 31.5219C68.0708 32.3959 67.0638 32.8329 65.7338 32.8329L45.3278 33.1749C45.2898 33.4409 45.2708 33.8019 45.2708 34.2579C45.2708 36.4239 46.0498 38.2099 47.6078 39.6159C49.1658 40.9839 51.1988 41.6679 53.7068 41.6679C55.7968 41.6679 57.4688 41.3069 58.7228 40.5849C60.0148 39.8629 61.3828 38.8179 62.8268 37.4499C63.3208 37.0319 63.8338 36.8229 64.3658 36.8229C64.9358 36.8229 65.4678 37.0319 65.9618 37.4499C66.4558 37.8299 66.7028 38.2859 66.7028 38.8179C66.7028 39.3879 66.4178 39.9769 65.8478 40.5849C64.4798 42.1809 62.8838 43.5489 61.0598 44.6889C59.2738 45.7909 56.8228 46.3419 53.7068 46.3419ZM63.9668 28.7859C64.4608 28.7859 64.7838 28.6719 64.9358 28.4439C65.0878 28.1779 65.1638 27.7219 65.1638 27.0759C65.1638 25.2519 64.4228 23.8079 62.9408 22.7439C61.4968 21.6799 59.6538 21.1479 57.4118 21.1479C55.4738 21.1479 53.6688 21.6229 51.9968 22.5729C50.3248 23.4849 48.9568 24.5869 47.8928 25.8789C46.8288 27.1329 46.2208 28.2349 46.0688 29.1849L63.9668 28.7859Z" fill="black"/>
<path d="M92.9415 16.9299C95.6015 16.9299 97.6915 17.7279 99.2115 19.3239C100.731 20.9199 101.491 23.1809 101.491 26.1069C101.491 27.1709 101.32 28.7289 100.978 30.7809C100.674 32.8329 100.18 35.7399 99.4965 39.5019C99.5345 39.3879 99.2685 40.8319 98.6985 43.8339C98.5845 44.5179 98.2425 45.0499 97.6725 45.4299C97.1025 45.8099 96.3995 45.9999 95.5635 45.9999C94.6895 45.9999 94.0245 45.7909 93.5685 45.3729C93.1125 44.9549 92.9415 44.4419 93.0555 43.8339L94.2525 36.7659C94.7085 34.2199 95.0885 31.9969 95.3925 30.0969C95.6965 28.1589 95.8485 26.8289 95.8485 26.1069C95.8485 24.5869 95.5635 23.4659 94.9935 22.7439C94.4235 21.9839 93.5115 21.6039 92.2575 21.6039C90.4335 21.6039 88.8375 22.3259 87.4695 23.7699C86.1015 25.1759 84.9615 27.1899 84.0495 29.8119C83.3655 31.7119 82.8525 33.7639 82.5105 35.9679C82.2445 37.4119 81.7885 40.0719 81.1425 43.9479C81.0285 44.6319 80.6865 45.1639 80.1165 45.5439C79.5845 45.8859 78.8815 46.0569 78.0075 46.0569C77.0955 46.0569 76.4115 45.8669 75.9555 45.4869C75.5375 45.0689 75.3855 44.5559 75.4995 43.9479L76.1835 39.6729C77.3615 32.6049 78.1595 27.4179 78.5775 24.1119C78.6155 23.9219 78.6345 23.6559 78.6345 23.3139C78.6345 22.8959 78.5395 22.4589 78.3495 22.0029C78.1975 21.5469 78.0075 21.0529 77.7795 20.5209C77.7415 20.4069 77.7035 20.2929 77.6655 20.1789C77.6275 20.0269 77.6085 19.8559 77.6085 19.6659C77.6085 19.0959 77.9695 18.5639 78.6915 18.0699C79.4515 17.5379 80.1355 17.2719 80.7435 17.2719C81.4275 17.2719 82.0165 17.6899 82.5105 18.5259C82.7765 18.9439 83.0235 19.5329 83.2515 20.2929C83.4795 21.0529 83.5555 21.6229 83.4795 22.0029L83.2515 23.0289C85.4175 18.9629 88.6475 16.9299 92.9415 16.9299Z" fill="black"/>
<path d="M116.97 14.5929C115.906 14.5929 115.051 14.2889 114.405 13.6809C113.797 13.0729 113.493 12.2749 113.493 11.2869C113.493 9.95688 113.968 8.83588 114.918 7.92388C115.906 6.97388 117.084 6.49888 118.452 6.49888C119.516 6.49888 120.352 6.78388 120.96 7.35388C121.606 7.92388 121.929 8.70288 121.929 9.69088C121.929 11.0589 121.435 12.2179 120.447 13.1679C119.459 14.1179 118.3 14.5929 116.97 14.5929ZM110.643 45.6579C109.883 45.6579 109.275 45.4869 108.819 45.1449C108.363 44.8029 108.135 44.3469 108.135 43.7769C108.135 43.5489 108.154 43.3779 108.192 43.2639L112.809 20.1219C112.961 19.3619 113.322 18.7729 113.892 18.3549C114.5 17.8989 115.241 17.6709 116.115 17.6709C116.875 17.6709 117.483 17.8609 117.939 18.2409C118.395 18.5829 118.623 19.0579 118.623 19.6659C118.623 19.8939 118.604 20.0649 118.566 20.1789L113.949 43.3209C113.797 44.0809 113.417 44.6699 112.809 45.0879C112.201 45.4679 111.479 45.6579 110.643 45.6579Z" fill="black"/>
<path d="M141.9 36.0249C143.268 36.0249 143.952 36.5949 143.952 37.7349C143.952 39.2169 143.629 40.6039 142.983 41.8959C142.337 43.1499 141.425 44.1569 140.247 44.9169C139.069 45.6769 137.739 46.0569 136.257 46.0569C133.939 46.0569 132.096 45.2969 130.728 43.7769C129.36 42.2189 128.676 40.0149 128.676 37.1649C128.676 34.0869 129.36 29.8119 130.728 24.3399L127.821 24.1689C126.605 24.0929 125.997 23.5419 125.997 22.5159C125.997 20.6159 126.89 19.6659 128.676 19.6659C129.284 19.6659 130.348 19.7039 131.868 19.7799C133.046 15.7139 134.034 12.4079 134.832 9.86188C135.326 8.49388 136.371 7.80988 137.967 7.80988C138.727 7.80988 139.335 7.99988 139.791 8.37988C140.247 8.72188 140.475 9.15888 140.475 9.69088C140.475 9.80488 140.437 10.0139 140.361 10.3179C139.031 14.4219 138.043 17.6899 137.397 20.1219C138.917 20.1979 140.114 20.2359 140.988 20.2359C142.432 20.2359 143.154 20.6919 143.154 21.6039C143.154 22.6679 142.907 23.4279 142.413 23.8839C141.919 24.3019 141.159 24.5109 140.133 24.5109H136.2C134.832 29.9829 134.148 34.2769 134.148 37.3929C134.148 38.7229 134.3 39.7299 134.604 40.4139C134.946 41.0979 135.516 41.4399 136.314 41.4399C137.112 41.4399 137.777 41.1739 138.309 40.6419C138.879 40.1099 139.183 39.2929 139.221 38.1909C139.297 37.5449 139.544 37.0319 139.962 36.6519C140.418 36.2339 141.064 36.0249 141.9 36.0249Z" fill="black"/>
<path d="M163.014 46.0569C158.948 46.0569 155.623 45.0689 153.039 43.0929C150.455 41.0789 149.163 37.9819 149.163 33.8019C149.163 30.7239 149.885 27.8739 151.329 25.2519C152.811 22.5919 154.844 20.4829 157.428 18.9249C160.05 17.3289 163.014 16.5309 166.32 16.5309C170.424 16.5309 173.73 17.7089 176.238 20.0649C178.746 22.3829 180 25.6509 180 29.8689C180 32.9469 179.297 35.7209 177.891 38.1909C176.523 40.6609 174.547 42.5989 171.963 44.0049C169.379 45.3729 166.396 46.0569 163.014 46.0569ZM163.014 41.6109C165.37 41.6109 167.384 41.0979 169.056 40.0719C170.766 39.0459 172.058 37.6399 172.932 35.8539C173.806 34.0679 174.243 32.0729 174.243 29.8689C174.243 27.1329 173.54 24.9859 172.134 23.4279C170.728 21.8319 168.79 21.0339 166.32 21.0339C164.078 21.0339 162.083 21.6229 160.335 22.8009C158.625 23.9789 157.295 25.5559 156.345 27.5319C155.433 29.4699 154.977 31.5599 154.977 33.8019C154.977 36.5379 155.718 38.5329 157.2 39.7869C158.72 41.0029 160.658 41.6109 163.014 41.6109Z" fill="black"/>
<path d="M216.289 45.9999C212.413 45.9999 209.335 44.9929 207.055 42.9789C204.775 40.9649 203.635 38.2669 203.635 34.8849C203.635 33.4029 203.901 32.3389 204.433 31.6929C204.965 31.0089 205.839 30.6669 207.055 30.6669C208.157 30.6669 208.841 30.9139 209.107 31.4079C209.411 31.9019 209.563 32.7189 209.563 33.8589C209.639 38.5329 211.843 40.8699 216.175 40.8699C218.531 40.8699 220.488 40.2809 222.046 39.1029C223.604 37.9249 224.383 36.4049 224.383 34.5429C224.383 33.4029 224.06 32.4719 223.414 31.7499C222.768 31.0279 221.951 30.4579 220.963 30.0399C219.975 29.5839 218.569 29.0519 216.745 28.4439C213.857 27.5319 211.406 26.3159 209.392 24.7959C207.416 23.2379 206.428 20.9389 206.428 17.8989C206.428 15.6189 207.093 13.5479 208.423 11.6859C209.753 9.78588 211.52 8.30388 213.724 7.23988C215.966 6.17588 218.379 5.64388 220.963 5.64388C223.281 5.64388 225.352 6.08088 227.176 6.95488C229.038 7.79088 230.482 8.98788 231.508 10.5459C232.534 12.0659 233.047 13.7759 233.047 15.6759C233.047 17.1579 232.743 18.2029 232.135 18.8109C231.527 19.4189 230.672 19.7229 229.57 19.7229C228.81 19.7229 228.259 19.6089 227.917 19.3809C227.575 19.1529 227.366 18.8679 227.29 18.5259C227.252 18.1459 227.233 17.5949 227.233 16.8729C227.233 15.1249 226.682 13.6809 225.58 12.5409C224.516 11.3629 222.958 10.7739 220.906 10.7739C219.348 10.7739 217.885 11.1159 216.517 11.7999C215.187 12.4459 214.123 13.3389 213.325 14.4789C212.565 15.5809 212.185 16.7589 212.185 18.0129C212.185 19.0009 212.451 19.7989 212.983 20.4069C213.515 21.0149 214.199 21.5089 215.035 21.8889C215.909 22.2689 217.182 22.7249 218.854 23.2569C219.082 23.3709 219.31 23.4659 219.538 23.5419C219.766 23.5799 219.975 23.6369 220.165 23.7129C222.901 24.6629 225.238 25.9359 227.176 27.5319C229.114 29.1279 230.083 31.4839 230.083 34.5999C230.083 36.8799 229.475 38.8939 228.259 40.6419C227.043 42.3519 225.39 43.6819 223.3 44.6319C221.21 45.5439 218.873 45.9999 216.289 45.9999Z" fill="black"/>
<path d="M255.391 16.5309C257.975 16.5309 260.065 17.2909 261.661 18.8109C263.257 20.3309 264.055 22.5919 264.055 25.5939C264.055 27.2659 263.846 29.5649 263.428 32.4909C263.01 35.4169 262.402 39.1789 261.604 43.7769C261.49 44.4229 261.129 44.9549 260.521 45.3729C259.951 45.7529 259.267 45.9429 258.469 45.9429C257.633 45.9429 256.987 45.7149 256.531 45.2589C256.075 44.8029 255.904 44.2139 256.018 43.4919L256.36 41.4399C257.576 34.1819 258.279 29.3179 258.469 26.8479C258.697 23.1239 257.424 21.2619 254.65 21.2619C252.788 21.2619 250.983 22.0029 249.235 23.4849C247.525 24.9669 246.29 26.6389 245.53 28.5009C245.188 29.2989 244.884 30.2679 244.618 31.4079C244.39 32.5099 244.162 33.7259 243.934 35.0559C243.706 36.3479 243.554 37.2409 243.478 37.7349L242.452 43.8339C242.338 44.4419 241.958 44.9359 241.312 45.3159C240.704 45.6959 240.001 45.8859 239.203 45.8859C238.405 45.8859 237.778 45.6959 237.322 45.3159C236.866 44.8979 236.676 44.3849 236.752 43.7769C238.082 36.2909 239.488 28.9379 240.97 21.7179C242.072 16.3599 243.421 10.3559 245.017 3.70588C245.169 2.90788 245.53 2.29988 246.1 1.88188C246.67 1.46388 247.392 1.25488 248.266 1.25488C249.786 1.25488 250.546 1.78688 250.546 2.85088C250.546 3.11688 250.527 3.32588 250.489 3.47788C250.223 4.69388 249.368 8.41788 247.924 14.6499C247.544 16.1699 247.088 18.1079 246.556 20.4639C248.95 17.8419 251.895 16.5309 255.391 16.5309Z" fill="black"/>
<path d="M281.856 46.0569C277.79 46.0569 274.465 45.0689 271.881 43.0929C269.297 41.0789 268.005 37.9819 268.005 33.8019C268.005 30.7239 268.727 27.8739 270.171 25.2519C271.653 22.5919 273.686 20.4829 276.27 18.9249C278.892 17.3289 281.856 16.5309 285.162 16.5309C289.266 16.5309 292.572 17.7089 295.08 20.0649C297.588 22.3829 298.842 25.6509 298.842 29.8689C298.842 32.9469 298.139 35.7209 296.733 38.1909C295.365 40.6609 293.389 42.5989 290.805 44.0049C288.221 45.3729 285.238 46.0569 281.856 46.0569ZM281.856 41.6109C284.212 41.6109 286.226 41.0979 287.898 40.0719C289.608 39.0459 290.9 37.6399 291.774 35.8539C292.648 34.0679 293.085 32.0729 293.085 29.8689C293.085 27.1329 292.382 24.9859 290.976 23.4279C289.57 21.8319 287.632 21.0339 285.162 21.0339C282.92 21.0339 280.925 21.6229 279.177 22.8009C277.467 23.9789 276.137 25.5559 275.187 27.5319C274.275 29.4699 273.819 31.5599 273.819 33.8019C273.819 36.5379 274.56 38.5329 276.042 39.7869C277.562 41.0029 279.5 41.6109 281.856 41.6109Z" fill="black"/>
<path d="M321.167 16.7589C323.447 16.7589 325.537 17.2719 327.437 18.2979C329.375 19.3239 330.895 20.7869 331.997 22.6869C333.137 24.5489 333.707 26.6959 333.707 29.1279C333.707 32.3959 333.004 35.3219 331.598 37.9059C330.23 40.4899 328.292 42.5039 325.784 43.9479C323.276 45.3919 320.388 46.1139 317.12 46.1139C315.03 46.1139 313.111 45.8479 311.363 45.3159C309.615 44.7459 308.399 44.2139 307.715 43.7199L307.373 45.3159C306.157 51.5099 305.397 55.2529 305.093 56.5449C304.979 57.2289 304.618 57.7609 304.01 58.1409C303.44 58.5589 302.718 58.7679 301.844 58.7679C301.122 58.7679 300.552 58.5969 300.134 58.2549C299.716 57.9129 299.507 57.4569 299.507 56.8869C299.507 56.6209 299.526 56.4309 299.564 56.3169C299.716 55.6329 299.868 55.0059 300.02 54.4359C300.134 53.9039 300.229 53.4099 300.305 52.9539C301.331 48.3179 302.205 44.0999 302.927 40.2999C304.675 31.2559 305.549 25.9739 305.549 24.4539C305.549 23.3139 305.283 22.3639 304.751 21.6039C304.713 21.5279 304.618 21.3949 304.466 21.2049C304.352 21.0149 304.295 20.7869 304.295 20.5209C304.295 19.8749 304.694 19.2289 305.492 18.5829C306.328 17.9369 307.107 17.6139 307.829 17.6139C308.285 17.6139 308.684 17.7849 309.026 18.1269C309.71 18.8489 310.242 19.9319 310.622 21.3759C311.648 20.1219 313.054 19.0389 314.84 18.1269C316.626 17.2149 318.735 16.7589 321.167 16.7589ZM317.063 41.6109C319.305 41.6109 321.243 41.0599 322.877 39.9579C324.511 38.8179 325.765 37.2979 326.639 35.3979C327.513 33.4979 327.95 31.4079 327.95 29.1279C327.95 26.7339 327.285 24.8529 325.955 23.4849C324.625 22.1169 322.915 21.4329 320.825 21.4329C319.077 21.4329 317.462 21.8129 315.98 22.5729C314.498 23.3329 313.282 24.2259 312.332 25.2519C311.42 26.2399 310.907 27.0759 310.793 27.7599L308.912 38.3049C308.988 38.6849 309.425 39.1409 310.223 39.6729C311.059 40.2049 312.085 40.6609 313.301 41.0409C314.555 41.4209 315.809 41.6109 317.063 41.6109Z" fill="black"/>
</g>
<defs>
<filter id="filter0_d_25_1919" x="0.855469" y="0.254883" width="343.852" height="69.5132" filterUnits="userSpaceOnUse" color-interpolation-filters="sRGB">
<feFlood flood-opacity="0" result="BackgroundImageFix"/>
<feColorMatrix in="SourceAlpha" type="matrix" values="0 0 0 0 0 0 0 0 0 0 0 0 0 0 0 0 0 0 127 0" result="hardAlpha"/>
<feOffset dx="5" dy="5"/>
<feGaussianBlur stdDeviation="3"/>
<feComposite in2="hardAlpha" operator="out"/>
<feColorMatrix type="matrix" values="0 0 0 0 0 0 0 0 0 0 0 0 0 0 0 0 0 0 0.36 0"/>
<feBlend mode="normal" in2="BackgroundImageFix" result="effect1_dropShadow_25_1919"/>
<feBlend mode="normal" in="SourceGraphic" in2="effect1_dropShadow_25_1919" result="shape"/>
</filter>
</defs>
</svg>
