<svg width="53" height="55" viewBox="0 0 53 55" fill="none" xmlns="http://www.w3.org/2000/svg">
<path d="M51.7065 47.1767L40.4946 35.5418C42.8112 31.9187 44.1671 27.5805 44.1671 22.9169C44.1671 10.2805 34.2604 0 22.0836 0C9.90669 0 0 10.2805 0 22.9169C0 35.5533 9.90669 45.8338 22.0836 45.8338C26.5776 45.8338 30.758 44.4267 34.2494 42.0227L45.4612 53.6576C47.1837 55.4475 49.9839 55.4475 51.7065 53.6576C53.4312 51.8678 53.4312 48.9666 51.7065 47.1767ZM6.62507 22.9169C6.62507 14.071 13.5593 6.87507 22.0836 6.87507C30.6078 6.87507 37.5421 14.071 37.5421 22.9169C37.5421 31.7628 30.6078 38.9587 22.0836 38.9587C13.5593 38.9587 6.62507 31.7628 6.62507 22.9169Z" fill="black"/>
</svg>
