<svg width="100" height="99" viewBox="0 0 100 99" fill="none" xmlns="http://www.w3.org/2000/svg">
<path d="M0.0100273 48.0067C0.0100273 20.4108 21.6152 0 49.5065 0C77.3977 0 99.0029 20.4108 99.0029 48.0067C99.0029 75.5871 77.3977 96.0134 49.5065 96.0134C44.5104 96.0134 39.6938 95.3515 35.1989 94.1112C34.3142 93.8699 33.3768 93.9504 32.557 94.3215L22.6949 98.6548C20.118 99.7993 17.2008 97.962 17.1203 95.1443L16.8295 86.3168C16.7986 85.2373 16.3129 84.2383 15.5241 83.5145C5.48557 74.4613 -0.169397 61.5263 0.00693373 48.0098L0.0100273 48.0067ZM34.3296 38.9689L19.8117 62.0707C18.3608 64.245 21.1326 66.7751 23.196 65.1637L38.8245 53.3236C39.9042 52.5009 41.3055 52.5009 42.4161 53.3236L53.9519 61.9902C57.4321 64.5853 62.3786 63.6326 64.6833 60.0076L79.2013 36.9059C80.6521 34.7315 77.8803 32.2509 75.8169 33.8129L60.1884 45.6529C59.1583 46.4757 57.7074 46.4757 56.6432 45.6529L45.092 36.9863C41.6118 34.3603 36.6498 35.2789 34.3296 38.9689Z" fill="white"/>
</svg>
