<svg width="100" height="99" viewBox="0 0 100 99" fill="none" xmlns="http://www.w3.org/2000/svg">
<path d="M49.5029 0C22.1566 0 0.00292969 22.1568 0.00292969 49.5C0.00292969 76.8432 22.1598 99 49.5029 99C76.8493 99 99.0029 76.8432 99.0029 49.5C99.0029 22.1568 76.8461 0 49.5029 0ZM73.8154 33.9123L65.691 72.1965C65.0906 74.9111 63.4747 75.5689 61.2201 74.2915L48.8451 65.1707L42.8763 70.9191C42.2184 71.577 41.6596 72.1359 40.3822 72.1359L41.2604 59.5405L64.1933 38.8208C65.1928 37.9426 63.9729 37.4444 62.654 38.3226L34.3112 56.1649L22.0959 52.3518C19.4421 51.5151 19.3814 49.698 22.6548 48.4206L70.3792 30.0162C72.5955 29.2178 74.5308 30.5559 73.8122 33.9091L73.8154 33.9123Z" fill="white"/>
</svg>
