<svg width="73" height="73" viewBox="0 0 73 73" fill="none" xmlns="http://www.w3.org/2000/svg">
<g filter="url(#filter0_d_25_1278)">
<path d="M31.4647 37.5C39.864 37.5 46.673 29.3292 46.673 19.25C46.673 9.1708 39.864 1 31.4647 1C23.0654 1 16.2563 9.1708 16.2563 19.25C16.2563 29.3292 23.0654 37.5 31.4647 37.5Z" fill="black"/>
<path d="M61.2732 53.0125C58.5357 47.5374 53.3649 42.9749 46.6732 40.2374C44.8482 39.6291 42.719 39.6291 41.1982 40.5416C38.1565 42.3666 35.1149 43.2791 31.4649 43.2791C27.8149 43.2791 24.7732 42.3666 21.7315 40.5416C20.2107 39.9333 18.0815 39.6291 16.2565 40.5416C9.56485 43.2791 4.39402 47.8416 1.65652 53.3166C-0.472648 57.2708 2.87319 61.8333 7.43569 61.8333H55.494C60.0565 61.8333 63.4024 57.2708 61.2732 53.0125Z" fill="black"/>
</g>
<defs>
<filter id="filter0_d_25_1278" x="0" y="0" width="72.9297" height="72.8335" filterUnits="userSpaceOnUse" color-interpolation-filters="sRGB">
<feFlood flood-opacity="0" result="BackgroundImageFix"/>
<feColorMatrix in="SourceAlpha" type="matrix" values="0 0 0 0 0 0 0 0 0 0 0 0 0 0 0 0 0 0 127 0" result="hardAlpha"/>
<feOffset dx="5" dy="5"/>
<feGaussianBlur stdDeviation="3"/>
<feComposite in2="hardAlpha" operator="out"/>
<feColorMatrix type="matrix" values="0 0 0 0 0 0 0 0 0 0 0 0 0 0 0 0 0 0 0.36 0"/>
<feBlend mode="normal" in2="BackgroundImageFix" result="effect1_dropShadow_25_1278"/>
<feBlend mode="normal" in="SourceGraphic" in2="effect1_dropShadow_25_1278" result="shape"/>
</filter>
</defs>
</svg>
