<svg width="61" height="61" viewBox="0 0 61 61" fill="none" xmlns="http://www.w3.org/2000/svg">
<path d="M30.4652 36.5C38.8645 36.5 45.6735 28.3292 45.6735 18.25C45.6735 8.1708 38.8645 0 30.4652 0C22.0658 0 15.2568 8.1708 15.2568 18.25C15.2568 28.3292 22.0658 36.5 30.4652 36.5Z" fill="black"/>
<path d="M60.2732 52.0125C57.5357 46.5374 52.3649 41.9749 45.6732 39.2374C43.8482 38.6291 41.719 38.6291 40.1982 39.5416C37.1565 41.3666 34.1149 42.2791 30.4649 42.2791C26.8149 42.2791 23.7732 41.3666 20.7315 39.5416C19.2107 38.9333 17.0815 38.6291 15.2565 39.5416C8.56485 42.2791 3.39402 46.8416 0.656519 52.3166C-1.47265 56.2708 1.87319 60.8333 6.43569 60.8333H54.494C59.0565 60.8333 62.4024 56.2708 60.2732 52.0125Z" fill="black"/>
</svg>
