<svg width="100" height="99" viewBox="0 0 100 99" fill="none" xmlns="http://www.w3.org/2000/svg">
<circle cx="49.5029" cy="49.5" r="49.5" fill="white"/>
<path d="M64.1057 55.8217C63.3057 55.4167 59.4096 53.5155 58.6814 53.2442C57.9533 52.9849 57.4246 52.8492 56.8939 53.6492C56.3753 54.4292 54.8471 56.2147 54.3803 56.7354C53.9135 57.2561 53.4546 57.296 52.6666 56.9429C51.8667 56.5379 49.3111 55.706 46.2768 52.9849C43.9068 50.8762 42.3288 48.2788 41.86 47.4788C41.3931 46.6888 41.8081 46.2419 42.2031 45.8469C42.5662 45.4839 43.0031 44.9333 43.408 44.4545C43.7931 43.9757 43.9168 43.6545 44.198 43.1358C44.4574 42.5752 44.3237 42.1383 44.1262 41.7433C43.9287 41.3483 42.3387 37.4322 41.6744 35.8722C41.04 34.3241 40.3757 34.5216 39.8869 34.5216C39.4301 34.4797 38.8994 34.4797 38.3708 34.4797C37.8421 34.4797 36.9783 34.6772 36.2501 35.4353C35.522 36.2352 33.4652 38.1464 33.4652 42.0126C33.4652 45.8888 36.312 49.6394 36.707 50.1999C37.112 50.7186 42.3068 58.6984 50.2767 62.1278C52.1779 62.9277 53.6541 63.4065 54.8072 63.8015C56.7084 64.404 58.444 64.3202 59.8146 64.1227C61.3307 63.8734 64.5107 62.1996 65.177 60.3303C65.8533 58.4491 65.8533 56.891 65.6558 56.5379C65.4583 56.1748 64.9396 55.9773 64.1396 55.6242L64.1057 55.8217ZM49.6523 75.4182H49.6104C44.8923 75.4182 40.2281 74.1394 36.1544 71.7494L35.1988 71.1789L25.224 73.7763L27.9052 64.0709L27.2609 63.0734C24.6315 58.886 23.2291 54.0542 23.2291 49.0887C23.2291 34.6054 35.0851 22.7912 49.6722 22.7912C56.7383 22.7912 63.3676 25.5443 68.355 30.5317C73.3424 35.4772 76.0954 42.1064 76.0954 49.1306C76.0754 63.604 64.2294 75.4182 49.6622 75.4182H49.6523ZM72.1474 26.7393C66.0787 20.8781 58.0989 17.5645 49.6104 17.5645C32.1026 17.5645 17.8467 31.7586 17.8367 49.2025C17.8367 54.7724 19.291 60.2066 22.076 65.0165L17.5674 81.403L34.4208 77.0081C39.065 79.5118 44.2918 80.8524 49.6124 80.8624H49.6223C67.14 80.8624 81.396 66.6683 81.406 49.2124C81.406 40.7658 78.1123 32.8159 72.1075 26.841L72.1474 26.7393Z" fill="#4E4E4E"/>
</svg>
